<?xml version="1.0" encoding="UTF-8"?>
<svg width="18px" height="14px" viewBox="0 0 18 14" version="1.1" xmlns="http://www.w3.org/2000/svg" xmlns:xlink="http://www.w3.org/1999/xlink">
    <title>EF8114A9-6E26-47EA-8509-88CEA0BFC683</title>
    <g id="⚙️-Style-Guide" stroke="none" stroke-width="1" fill="none" fill-rule="evenodd">
        <g id="Topper---Style-Guide" transform="translate(-1076.000000, -1295.000000)" fill="#000000">
            <g id="Icon/20/payment" transform="translate(1076.406250, 1295.906250)">
                <path d="M16.0937501,0 C16.6978115,0 17.1875001,0.489688557 17.1875001,1.09375001 L17.1875001,1.09375001 L17.1875001,11.0937501 C17.1875001,11.6978115 16.6978115,12.1875001 16.0937501,12.1875001 L16.0937501,12.1875001 L1.09375001,12.1875001 C0.489688557,12.1875001 0,11.6978115 0,11.0937501 L0,11.0937501 L0,1.09375001 C0,0.489688557 0.489688557,0 1.09375001,0 L1.09375001,0 Z M16.25,4.191 L0.937,4.191 L0.937500005,11.0937501 C0.937500005,11.1627856 0.98227153,11.2213643 1.04436292,11.2420343 L1.09375001,11.2500001 L16.0937501,11.2500001 C16.1800446,11.2500001 16.2500001,11.1800445 16.2500001,11.0937501 L16.2500001,11.0937501 L16.25,4.191 Z M14.2182923,8.75000004 C14.4771757,8.75000004 14.6870423,8.97385767 14.6870423,9.25000004 C14.6870423,9.51986646 14.4866067,9.73979769 14.2358656,9.74965517 L14.2182923,9.75000004 L11.7182922,9.75000004 C11.4594088,9.75000004 11.2495422,9.52614242 11.2495422,9.25000004 C11.2495422,8.98013363 11.4499778,8.7602024 11.7007189,8.75034492 L14.2182923,8.75000004 Z M9.21829223,8.75000004 C9.47717571,8.75000004 9.68704224,8.97385767 9.68704224,9.25000004 C9.68704224,9.51986646 9.4866067,9.73979769 9.23586554,9.74965517 L9.21829223,9.75000004 L7.96829223,9.75000004 C7.70940875,9.75000004 7.49954222,9.52614242 7.49954222,9.25000004 C7.49954222,8.98013363 7.69997776,8.7602024 7.95071893,8.75034492 L9.21829223,8.75000004 Z M16.0937501,0.937500005 L1.09375001,0.937500005 C1.00745551,0.937500005 0.937500005,1.00745551 0.937500005,1.09375001 L0.937500005,1.09375001 L0.937,3.191 L16.25,3.191 L16.2500001,1.09375001 C16.2500001,1.02471441 16.2052286,0.966135767 16.1431372,0.945465733 L16.0937501,0.937500005 Z" id="card"></path>
            </g>
        </g>
    </g>
</svg>