<?xml version="1.0" encoding="UTF-8"?>
<svg width="20px" height="14px" viewBox="0 0 20 14" version="1.1" xmlns="http://www.w3.org/2000/svg" xmlns:xlink="http://www.w3.org/1999/xlink">
    <title>CA0799F8-C0B3-4C62-9BD3-4A6D9F21168F</title>
    <g id="⚙️-Style-Guide" stroke="none" stroke-width="1" fill="none" fill-rule="evenodd">
        <g id="Topper---Style-Guide" transform="translate(-1235.000000, -1256.000000)" fill="#000000">
            <g id="Icon/20/cart" transform="translate(1235.781250, 1256.531250)">
                <path d="M12.9687501,0 C13.2217498,0 13.4279354,0.200435539 13.4371767,0.4511767 L13.437,1.25 L16.2956048,1.25000001 C16.69812,1.25000001 17.0641383,1.47055478 17.2544043,1.81738391 L17.3111259,1.93754112 L18.4017892,4.66397636 C18.4226725,4.71422319 18.4350653,4.76888688 18.4371768,4.82617672 L18.4375001,9.84375005 C18.4375001,10.4396485 17.9609569,10.9242443 17.3681755,10.9372327 L16.2031858,10.9371589 C15.9861597,12.007129 15.0402571,12.8125001 13.9062501,12.8125001 C12.7948489,12.8125001 11.8641274,12.0389184 11.6231579,11.0008272 L6.81434217,11.0008272 C6.57337264,12.0389184 5.64265118,12.8125001 4.53125002,12.8125001 C3.39724296,12.8125001 2.45134039,12.007129 2.23431427,10.9371589 L1.09375001,10.9375001 C0.49785155,10.9375001 0.0132557121,10.4609569 0.000267347304,9.86817544 L0,1.09375001 C0,0.49785155 0.476543156,0.0132557121 1.06932461,0.000267347304 L12.9687501,0 Z M13.9062501,9.06250005 C13.1295996,9.06250005 12.5000001,9.69209962 12.5000001,10.4687501 C12.5000001,11.2454005 13.1295996,11.8750001 13.9062501,11.8750001 C14.6829005,11.8750001 15.3125001,11.2454005 15.3125001,10.4687501 C15.3125001,9.69209962 14.6829005,9.06250005 13.9062501,9.06250005 Z M4.53125002,9.06250005 C3.75459959,9.06250005 3.12500002,9.69209962 3.12500002,10.4687501 C3.12500002,11.2454005 3.75459959,11.8750001 4.53125002,11.8750001 C5.30790046,11.8750001 5.93750003,11.2454005 5.93750003,10.4687501 C5.93750003,9.69209962 5.30790046,9.06250005 4.53125002,9.06250005 Z M17.5000001,5.31250003 L13.437,5.312 L13.4378412,8.1718143 C13.5383048,8.15143689 13.6411012,8.13748529 13.7457826,8.13040714 L13.9062501,8.12500004 C15.0402662,8.12500004 15.9861748,8.93038393 16.203191,10.0003668 L17.3437501,10 C17.4261221,10 17.4936067,9.9362596 17.4995715,9.85541117 L17.5000001,9.84375005 L17.5000001,5.31250003 Z M12.5,7.25 L0.937,7.25 L0.937500005,9.84375005 C0.937500005,9.92612206 1.00124046,9.9936067 1.08208888,9.99957148 L1.09375001,10 L2.23430908,10.0003668 C2.45132531,8.93038393 3.39723392,8.12500004 4.53125002,8.12500004 C5.66526612,8.12500004 6.61117474,8.93038393 6.82819096,10.0003668 L11.6093091,10.0003668 C11.7253298,9.42833542 12.0496793,8.93193058 12.4997246,8.5937853 L12.5,7.25 Z M12.5,0.937500005 L1.09375001,0.937500005 C1.01137799,0.937500005 0.943893355,1.00124046 0.937928578,1.08208888 L0.937,6.25 L12.5,6.25 L12.5,0.937500005 Z M16.2956048,2.18750001 L13.4375001,2.18750001 L13.4375001,4.37500002 L17.2764063,4.37500002 L16.4406791,2.28572013 C16.4185323,2.23035332 16.3670067,2.19277725 16.3082891,2.18801318 L16.3082891,2.18801318 L16.2956048,2.18750001 Z" id="truck"></path>
            </g>
        </g>
    </g>
</svg>