<?xml version="1.0" encoding="UTF-8"?>
<svg width="16px" height="16px" viewBox="0 0 16 16" version="1.1" xmlns="http://www.w3.org/2000/svg" xmlns:xlink="http://www.w3.org/1999/xlink">
    <title>E81DB990-06E1-460D-8793-929BBAE77D8B</title>
    <g id="⚙️-Style-Guide" stroke="none" stroke-width="1" fill="none" fill-rule="evenodd">
        <g id="Topper---Style-Guide" transform="translate(-1717.000000, -1334.000000)" fill="#000000">
            <g id="Icon/20/payment" transform="translate(1717.018203, 1334.656250)">
                <path d="M0.195826767,9.17229108 L0.137331246,9.2220028 C0.161298974,9.19803508 0.187216455,9.17720544 0.21457313,9.15951388 C0.23197373,9.14825184 0.250426189,9.13798601 0.269587782,9.12897949 C0.276740555,9.1256459 0.283842388,9.12253099 0.291002034,9.11960065 C0.316227513,9.10922035 0.342509347,9.10102393 0.369665424,9.09518012 C0.401168652,9.08865825 0.430342737,9.08537109 0.459560082,9.08479941 L4.21875002,9.08468805 C4.4776335,9.08468805 4.68750002,9.29455458 4.68750002,9.55343806 C4.68750002,9.80643782 4.48706448,10.0126234 4.23632332,10.0218647 L4.21875002,10.0221881 L1.6,10.022 L3.45189384,11.8736537 C4.65329879,13.0750587 6.28275365,13.7500011 7.98179691,13.7500011 C9.68084018,13.7500011 11.310295,13.0750587 12.5117,11.8736537 C12.6947582,11.6905954 12.9915543,11.6905954 13.1746126,11.8736536 C13.3576709,12.0567119 13.3576709,12.353508 13.1746126,12.5365662 C11.7973923,13.9137867 9.92948066,14.6875011 7.98179691,14.6875011 C6.05359001,14.6875011 4.20356771,13.9291836 2.83044457,12.5777016 L2.78898116,12.5365662 L0.937,10.684 L0.937500005,13.3034381 C0.937500005,13.5564378 0.737064465,13.7626234 0.486323304,13.7718648 L0.468750002,13.7721881 C0.21575024,13.7721881 0.00956470615,13.5717525 0.000323318131,13.3210114 L0,9.55343806 C0,9.52460617 0.00260303782,9.49638227 0.00758692277,9.46898852 C0.01004127,9.45582412 0.0132118196,9.44189546 0.01702404,9.42810705 C0.0210165733,9.41345722 0.0255796889,9.39962724 0.0307516064,9.38609824 C0.0346421249,9.37605737 0.0387688058,9.36626255 0.0432429815,9.35658884 C0.0513201819,9.33908268 0.0605179133,9.32209536 0.0706909414,9.30577896 C0.0758564679,9.29748247 0.0815036667,9.28903218 0.0874547094,9.28073254 C0.100401683,9.26269147 0.114256991,9.24597398 0.129187741,9.23028968 C0.131732514,9.22767201 0.134510142,9.2248239 0.137331246,9.2220028 L0.159846021,9.20086073 C0.171355159,9.1907691 0.183362647,9.18123197 0.195826767,9.17229108 Z M7.98179691,0 C9.91000382,0 11.7600261,0.758317489 13.1331493,2.1097995 L15.026,4.002 L15.0260938,1.38406302 C15.0260938,1.13106325 15.2265294,0.924877719 15.4772705,0.915636331 L15.4948438,0.915313013 C15.7478436,0.915313013 15.9540291,1.11574855 15.9632705,1.36648971 L15.9635938,5.13406303 C15.9635938,5.19345265 15.9525491,5.25026263 15.9324016,5.30255102 C15.9283482,5.31294319 15.9240019,5.32314654 15.9192775,5.3332165 C15.9116025,5.34959281 15.9030656,5.36531077 15.8936901,5.380455 C15.8876029,5.3902933 15.8810297,5.40007984 15.8740481,5.40966148 C15.8643153,5.42305559 15.8537445,5.43606478 15.842519,5.4484704 C15.8372253,5.45426123 15.8318285,5.45993233 15.8262626,5.46549829 L15.8141066,5.47728252 C15.8019204,5.48862322 15.7891294,5.49932272 15.7757874,5.50932731 L15.8262626,5.46549829 C15.8019915,5.4897694 15.7757209,5.51082248 15.7479811,5.52865753 C15.7303635,5.53999369 15.711687,5.55030277 15.6922902,5.55932386 C15.6856288,5.56239071 15.6791344,5.56522264 15.6725918,5.56790044 C15.6228939,5.58831826 15.5689334,5.60040674 15.5124171,5.60248972 L11.7448438,5.60281304 C11.4859603,5.60281304 11.2760938,5.39294651 11.2760938,5.13406303 C11.2760938,4.88106327 11.4765293,4.67487774 11.7272705,4.66563635 L14.363,4.665 L12.5117,2.81384743 C11.310295,1.61244236 9.68084018,0.937500005 7.98179691,0.937500005 C6.28275365,0.937500005 4.65329879,1.61244236 3.45189384,2.81384743 C3.26883559,2.99690571 2.9720395,2.99690572 2.78898123,2.81384747 C2.60592296,2.63078922 2.60592294,2.33399313 2.78898119,2.15093486 C4.1662015,0.773714406 6.03411317,0 7.98179691,0 Z" id="Changes"></path>
            </g>
        </g>
    </g>
</svg>